<svg width="40" height="40" xmlns="http://www.w3.org/2000/svg" xmlns:xlink="http://www.w3.org/1999/xlink"><g transform="translate(921 233)"><clipPath id="a" clip-rule="evenodd"><path d="M-921-233h40v40h-40v-40z" fill="#FFF"/></clipPath><g clip-path="url(#a)"><use xlink:href="#path0_fill" transform="translate(-921 -233)" fill="#7FE376" fill-opacity=".6"/><mask id="b"><use xlink:href="#path0_fill" fill="#fff" transform="translate(-921 -233)"/></mask><g mask="url(#b)"><use xlink:href="#path1_stroke_2x" transform="translate(-921 -233)" fill="#4F4F4F"/></g><g><use xlink:href="#path2_fill" transform="translate(-912 -238)" fill="#4F4F4F"/></g></g></g><defs><path id="path0_fill" d="M40 20c0 11.046-8.954 20-20 20S0 31.046 0 20 8.954 0 20 0s20 8.954 20 20z"/><path id="path1_stroke_2x" d="M39 20c0 10.493-8.507 19-19 19v2c11.598 0 21-9.402 21-21h-2zM20 39C9.507 39 1 30.493 1 20h-2c0 11.598 9.402 21 21 21v-2zM1 20C1 9.507 9.507 1 20 1v-2C8.402-1-1 8.402-1 20h2zM20 1c10.493 0 19 8.507 19 19h2C41 8.402 31.598-1 20-1v2z"/><path id="path2_fill" d="M18 24.12c.456 0 .828.156 1.116.468.312.288.468.66.468 1.116 0 .456-.156.84-.468 1.152-.288.288-.66.432-1.116.432h-5.616v5.58c0 .456-.156.84-.468 1.152-.288.312-.66.468-1.116.468-.456 0-.84-.156-1.152-.468-.288-.312-.432-.696-.432-1.152v-5.58H3.6c-.456 0-.84-.144-1.152-.432-.288-.312-.432-.696-.432-1.152 0-.456.144-.828.432-1.116A1.566 1.566 0 0 1 3.6 24.12h5.616v-5.616c0-.456.144-.828.432-1.116a1.566 1.566 0 0 1 1.152-.468c.456 0 .828.156 1.116.468.312.288.468.66.468 1.116v5.616H18z"/></defs></svg>