<svg width="40" height="40" xmlns="http://www.w3.org/2000/svg" xmlns:xlink="http://www.w3.org/1999/xlink"><g transform="translate(879 -233)"><clipPath id="a" clip-rule="evenodd"><path d="M-879 233h40v40h-40v-40z" fill="#FFF"/></clipPath><g clip-path="url(#a)"><use xlink:href="#path0_fill" transform="translate(-870 244)" fill="#4F4F4F"/><mask id="b"><use xlink:href="#path1_fill" fill="#fff" transform="translate(-879 233)"/></mask><g mask="url(#b)"><use xlink:href="#path2_stroke_2x" transform="translate(-879 233)" fill="#4F4F4F"/></g></g></g><defs><path id="path0_fill" d="M19.8 0H2.2C.99 0 0 1.003 0 2.23v14.08c0 1.227.99 2.23 2.2 2.23h4.405L6.6 23l4.4-4.46h8.8c1.21 0 2.2-1.003 2.2-2.23V2.23C22 1.003 21.01 0 19.8 0zm-2.2 14.08H4.4v-.738h13.2v.739zm0-2.972H4.4v-.74h13.2v.74zm0-3.712v.739H4.4V7.39h13.2v.005zm0-2.239H4.4v-.739h13.2v.74z"/><path id="path1_fill" d="M40 20c0 11.046-8.954 20-20 20S0 31.046 0 20 8.954 0 20 0s20 8.954 20 20z"/><path id="path2_stroke_2x" d="M38 20c0 9.941-8.059 18-18 18v4c12.15 0 22-9.85 22-22h-4zM20 38c-9.941 0-18-8.059-18-18h-4c0 12.15 9.85 22 22 22v-4zM2 20c0-9.941 8.059-18 18-18v-4C7.85-2-2 7.85-2 20h4zM20 2c9.941 0 18 8.059 18 18h4C42 7.85 32.15-2 20-2v4z"/></defs></svg>