<svg width="40" height="41" xmlns="http://www.w3.org/2000/svg" xmlns:xlink="http://www.w3.org/1999/xlink"><g transform="translate(1347 -349)"><clipPath id="a" clip-rule="evenodd"><path d="M-1347 349.197h40v40.097h-40v-40.097z" fill="#FFF"/></clipPath><g clip-path="url(#a)"><mask id="b"><use xlink:href="#path0_fill" fill="#fff" transform="translate(-1341 358)"/></mask><g mask="url(#b)"><use xlink:href="#path1_stroke_2x" transform="translate(-1341 358)" fill="#4F4F4F"/></g></g></g><defs><path id="path0_fill" d="M6.925 0v1.287c3.272 0 6.123 3.21 6.15 3.24l.926 1.067.926-1.066c.028-.033 2.906-3.241 6.149-3.241 1.583 0 3.005.74 4.344 2.262 1.057 1.202 1.48 2.561 1.292 4.153-.343 2.917-2.733 6.585-6.91 10.607a60.939 60.939 0 0 1-5.801 4.89 60.952 60.952 0 0 1-5.803-4.89c-4.178-4.022-6.567-7.69-6.91-10.606C1.1 6.11 1.523 4.752 2.58 3.55c1.34-1.523 2.761-2.263 4.344-2.263V0zm14.15 0c-3.888 0-7.074 3.668-7.074 3.668S10.814 0 6.926 0C5.236 0 3.413.693 1.66 2.684-5.74 11.098 14 24.769 14 24.769S33.739 11.098 26.342 2.684C24.59.694 22.766 0 21.076 0z"/><path id="path1_stroke_2x" d="M6.925 0l2-.001-4 .001h2zm0 1.287h-2l.002 2h1.999v-2zm6.15 3.24l1.51-1.31-.005-.007-1.505 1.318zm.926 1.067l-1.51 1.311 1.51 1.738 1.51-1.738L14 5.594zm.926-1.066l1.51 1.312.005-.006-1.515-1.306zm10.493-.979l1.502-1.32v-.001L25.42 3.549zm1.292 4.153l-1.986-.234 1.986.234zm-6.91 10.607l-1.387-1.441 1.387 1.44zm-5.801 4.89l-1.19 1.609 1.19.88 1.189-.88L14 23.2zm-5.803-4.89l-1.387 1.44 1.387-1.44zM1.288 7.703L-.7 7.936l1.987-.233zM2.58 3.55L1.08 2.228l1.5 1.322zm4.344-2.263v2h2v-2h-2zm7.076 2.38L12.49 4.98l1.51 1.737 1.51-1.737L14 3.668zM6.926 0v2-2zM1.66 2.684L.16 1.362H.158L1.66 2.685zM14 24.769l-1.138 1.644 1.139.79 1.139-.79L14 24.77zM26.342 2.684l1.502-1.32v-.002L26.34 2.684zM4.925 0v1.287l4-.002V-.001l-4 .002zm2 3.286c1.019 0 2.132.521 3.127 1.234.957.687 1.564 1.376 1.518 1.325l3.01-2.636a14.085 14.085 0 0 0-2.198-1.94C11.127.37 9.18-.713 6.926-.713v4zm4.64 2.553l.926 1.065 3.02-2.623-.926-1.066-3.02 2.624zm3.946 1.065l.925-1.065-3.019-2.624-.926 1.066 3.02 2.623zm.93-1.071c-.061.071.55-.62 1.517-1.311 1.003-.717 2.116-1.236 3.118-1.236v-4c-2.24 0-4.189 1.085-5.443 1.98a14.174 14.174 0 0 0-2.221 1.955l3.03 2.612zm4.635-2.547c.856 0 1.769.363 2.843 1.583l3.003-2.642C25.316.404 23.386-.713 21.076-.713v4zm2.842 1.583c.682.775.93 1.569.808 2.598l3.972.468c.254-2.154-.344-4.078-1.776-5.707l-3.004 2.64zm.808 2.599c-.257 2.183-2.191 5.432-6.311 9.399l2.774 2.881c4.234-4.076 7.08-8.162 7.51-11.813l-3.973-.467zm-6.311 9.399a58.958 58.958 0 0 1-5.604 4.724l2.379 3.216a62.943 62.943 0 0 0 6-5.059l-2.775-2.881zm-3.225 4.723a58.94 58.94 0 0 1-5.605-4.723L6.81 19.75a62.96 62.96 0 0 0 6 5.058l2.379-3.217zm-5.605-4.723C5.465 12.901 3.53 9.652 3.274 7.47L-.7 7.936c.43 3.65 3.275 7.737 7.51 11.814l2.774-2.882zM3.274 7.47c-.121-1.03.126-1.823.809-2.599L1.079 2.23C-.354 3.858-.952 5.78-.699 7.936l3.973-.467zm.808-2.598C5.157 3.65 6.07 3.287 6.925 3.287v-4c-2.31 0-4.24 1.117-5.845 2.941l3.002 2.643zm4.843-3.584V0h-4v1.287h4zM21.075-2c-2.548 0-4.73 1.186-6.158 2.207a16.036 16.036 0 0 0-2.226 1.93 9.198 9.198 0 0 0-.178.194l-.013.015-.005.006-.002.002-.001.001S12.49 2.356 14 3.668A334.11 334.11 0 0 1 15.51 4.98v.001l-.002.001-.001.002.014-.016.078-.084a12.042 12.042 0 0 1 1.644-1.423C18.38 2.648 19.736 2 21.076 2v-4zm-7.074 5.668c1.51-1.312 1.51-1.312 1.509-1.313h-.001c0-.002-.002-.002-.002-.003l-.005-.006-.014-.015a5.32 5.32 0 0 0-.178-.194 16.05 16.05 0 0 0-2.226-1.93C11.657-.814 9.475-2 6.926-2v4c1.34 0 2.696.648 3.832 1.461a12.047 12.047 0 0 1 1.644 1.423l.079.084.014.016-.001-.001-.001-.002h-.001L14 3.668zM6.927-2C4.603-2 2.25-1.014.159 1.362l3.003 2.643C4.574 2.401 5.867 2 6.926 2v-4zM.159 1.363c-2.434 2.766-2.564 5.992-1.593 8.945.938 2.855 2.927 5.598 5 7.91 2.1 2.34 4.422 4.384 6.203 5.834a63.207 63.207 0 0 0 2.848 2.188l.176.125.049.034.014.01.004.003h.001c0 .001.001.001 1.14-1.643a635.959 635.959 0 0 1 1.14-1.644h-.002l-.008-.006a59.438 59.438 0 0 1-2.836-2.168c-1.69-1.376-3.84-3.275-5.751-5.405-1.937-2.158-3.496-4.41-4.178-6.486-.65-1.976-.47-3.615.796-5.055L.159 1.363zM14 24.769l1.14 1.644.001-.001a.378.378 0 0 1 .004-.003l.014-.01a12.291 12.291 0 0 0 .225-.16c.152-.108.37-.266.642-.468.546-.405 1.311-.99 2.205-1.719 1.78-1.45 4.102-3.495 6.201-5.835 2.074-2.31 4.062-5.054 5-7.908.971-2.954.843-6.179-1.59-8.946L24.84 4.004c1.266 1.44 1.444 3.08.795 5.056-.683 2.076-2.242 4.328-4.178 6.486-1.91 2.13-4.06 4.029-5.75 5.405a59.259 59.259 0 0 1-2.65 2.036 24.273 24.273 0 0 1-.186.132l-.007.006h-.002l1.14 1.644zM27.843 1.362C25.75-1.014 23.398-2 21.076-2v4c1.058 0 2.352.401 3.764 2.005l3.003-2.643z"/></defs></svg>