<svg width="40" height="40" xmlns="http://www.w3.org/2000/svg" xmlns:xlink="http://www.w3.org/1999/xlink"><g transform="translate(1430 -233)"><clipPath id="a" clip-rule="evenodd"><path d="M-1430 233h40v40h-40v-40z" fill="#FFF"/></clipPath><g clip-path="url(#a)"><use xlink:href="#path0_fill" transform="matrix(-1 0 0 1 -1398 237)" fill="#4F4F4F"/><mask id="b"><use xlink:href="#path1_fill" fill="#fff" transform="translate(-1430 233)"/></mask><g mask="url(#b)"><use xlink:href="#path2_stroke_2x" transform="translate(-1430 233)" fill="#4F4F4F"/></g></g></g><defs><path id="path0_fill" d="M16.941 25.963h4.941V12.385L12 2.88l-9.882 9.505v13.578h4.94v-9.505h9.883v9.505zm-2.117-7.468H9.175V28H0V11.541L12 0l12 11.541V28h-9.177v-9.505z"/><path id="path1_fill" d="M40 20c0 11.046-8.954 20-20 20S0 31.046 0 20 8.954 0 20 0s20 8.954 20 20z"/><path id="path2_stroke_2x" d="M38 20c0 9.941-8.059 18-18 18v4c12.15 0 22-9.85 22-22h-4zM20 38c-9.941 0-18-8.059-18-18h-4c0 12.15 9.85 22 22 22v-4zM2 20c0-9.941 8.059-18 18-18v-4C7.85-2-2 7.85-2 20h4zM20 2c9.941 0 18 8.059 18 18h4C42 7.85 32.15-2 20-2v4z"/></defs></svg>