<svg width="40" height="40" xmlns="http://www.w3.org/2000/svg" xmlns:xlink="http://www.w3.org/1999/xlink"><g transform="translate(1273 -233)"><clipPath id="a" clip-rule="evenodd"><path d="M-1273 233h40v40h-40v-40z" fill="#FFF"/></clipPath><g clip-path="url(#a)"><use xlink:href="#path0_fill" transform="translate(-1265 247.88)" fill="#4F4F4F"/><use xlink:href="#path1_fill" transform="translate(-1265 241)" fill="#4F4F4F"/><g><mask id="b"><use xlink:href="#path2_fill" fill="#fff" transform="translate(-1273 233)"/></mask><g mask="url(#b)"><use xlink:href="#path3_stroke_2x" transform="translate(-1273 233)" fill="#4F4F4F"/></g></g></g></g><defs><path id="path0_fill" d="M8.88 9.84a1.32 1.32 0 0 0 1.893 0L13.6 7.013l.933-.933a1.32 1.32 0 0 0 0-1.893l-.933-.934L10.747.4a1.32 1.32 0 0 0-1.894 0 1.32 1.32 0 0 0 0 1.893l1.494 1.494H1.333A1.32 1.32 0 0 0 0 5.12a1.32 1.32 0 0 0 1.333 1.333h9.04L8.88 7.947a1.32 1.32 0 0 0 0 1.893z"/><path id="path1_fill" d="M0 1.333v5.334A1.32 1.32 0 0 0 1.333 8a1.32 1.32 0 0 0 1.334-1.333V3.2c0-.293.24-.533.533-.533h17.6c.293 0 .533.24.533.533v17.6c0 .293-.24.533-.533.533H3.2a.535.535 0 0 1-.533-.533v-3.467A1.32 1.32 0 0 0 1.333 16 1.32 1.32 0 0 0 0 17.333v5.334A1.32 1.32 0 0 0 1.333 24h21.334A1.32 1.32 0 0 0 24 22.667V1.333A1.32 1.32 0 0 0 22.667 0H1.333A1.32 1.32 0 0 0 0 1.333z"/><path id="path2_fill" d="M40 20c0 11.046-8.954 20-20 20S0 31.046 0 20 8.954 0 20 0s20 8.954 20 20z"/><path id="path3_stroke_2x" d="M38 20c0 9.941-8.059 18-18 18v4c12.15 0 22-9.85 22-22h-4zM20 38c-9.941 0-18-8.059-18-18h-4c0 12.15 9.85 22 22 22v-4zM2 20c0-9.941 8.059-18 18-18v-4C7.85-2-2 7.85-2 20h4zM20 2c9.941 0 18 8.059 18 18h4C42 7.85 32.15-2 20-2v4z"/></defs></svg>