<svg width="89" height="89" xmlns="http://www.w3.org/2000/svg" xmlns:xlink="http://www.w3.org/1999/xlink"><g transform="translate(993 -37)"><clipPath id="a" clip-rule="evenodd"><path d="M-993 37h89v89h-89V37z" fill="#FFF"/></clipPath><g clip-path="url(#a)"><use xlink:href="#path0_fill" transform="translate(-976.094 64.896)"/><use xlink:href="#path1_fill" transform="translate(-987 58.93)"/><use xlink:href="#path2_fill" transform="translate(-974.101 56)"/><use xlink:href="#path3_fill" transform="translate(-918.912 59.494)"/><use xlink:href="#path4_fill" transform="translate(-969.615 60.493)"/><use xlink:href="#path5_fill" transform="translate(-958.21 95.456)"/><use xlink:href="#path6_fill" transform="translate(-957.91 95.828)"/></g></g><defs><path id="path0_fill" d="M.002 0c-.005.149 0 .3.02.454A1.24 1.24 0 0 0 .001 0z"/><path id="path1_fill" d="M6.935.568C6.093.52 4.45-.923 3.783.986 3.24-.32 1.376.256.42.776-.13 2.017.672 3.315 0 4.332v.627c.459 5.945.172 10.49.84 15.262.648.836.942 1.314 2.102 1.254.132 3.84-.366 8.328-.21 12.962.146 4.328-1.045 9.797 1.891 10.453 4.96 1.108 3.363-7.232 3.363-12.335V21.892c4.224-1.568 1.58-8.8 3.152-12.125-.52.813-.723-2.144 0-2.51-.382.16-.713-1.434-.63-1.672.23.032.349.173.4.383.04-1.267.857-2.377-.19-3.31.07-1.027.216.476.63-.209-.546-.571-.584-1.648-1.05-2.3-1.467-.467-2.333.476-3.363.419zm1.891 19.234c-.498.34-1.215.463-1.891.627.018.297.035.592-.21.627-.025 4.58.685 14.884.21 20.28-.108 1.218-.368 1.989-1.261 2.508-.645-.054-.945-.454-1.471-.627-.456-3.285.646-6.15 0-9.408 1.307-.233-.301-3.246.21-4.81.72.967-.131-.869.84-1.045-.176-.8-.557-1.396-.84-2.09.17.111.342.218.63.21-.586-1.171.215-1.6-.63-2.718 1.294-1.384.702-4.168-1.891-4.182.382-1.395-.113-3.818-.42-5.017.572.13 2.64.304 3.782-.627.115 1.058 2.267.648 2.732.209-.041-.808-.007-1.541.21-2.09.526 2.756.19 5.674 0 8.153zm.21-8.991c-.83-2.258-.044-5.492-.42-8.78.939 2.918.28 5.605.42 8.78z"/><path id="path2_fill" d="M23.246.152C21.747.3 19.901.604 18.413.99c-1.7.439-3.016 1.877-4.834 1.672-1.117 1.094-3.038 3.076-5.463 3.554-.453.368-1.02 2.61-1.051 1.673.238-.04.116-.21 0-.21-.376 1.09-1.785 1.152-1.471 2.927-.687-.216-.446-.53-1.05 0C2.933 13.375.291 17.713.76 22.105c-.303-.047-.073-.624-.42-.627-1.372 8.778 1.557 15.786 6.094 21.115 1.946 2.286 4.449 4.675 6.935 6.063 2.123 1.184 4.348 1.816 6.725 2.3.579.118.997.544 1.471.628.857.15 2.298-.311 2.942.417h3.362c4.232-.448 9.087-1.801 12.609-4.181 2.354-1.59 3.67-3.11 5.464-5.227 3.688-4.35 6.952-11.144 6.304-19.234-1.049-13.091-12.534-24.839-29-23.206zm27.53 30.105c-2.182 10.797-12.354 21.176-25.218 20.07-3.871-.333-6.44-1.65-10.297-2.926-.268-.525.107-.655-.21-.838-.636.382-2.52-1.448-3.993-2.09-.068-.884.565.34 1.05.21-1.126-.686-1.505-2.09-3.572-2.718.092-.31.269.083.63 0-.606-.791-1.232-1.562-2.311-1.882-.027-.375.257-.44.21-.836C4.9 36.723 3.75 32.021 2.442 29.63c.029-.868.138-.042.42 0-.65-3.16.186-9.846 1.26-12.962 3.6-7.402 8.867-11.913 17.233-14.634.238.04.116.21 0 .209 7.332-1.66 15.852 1.268 20.805 4.6-.09.437.144.553.21.836 4.517 3.365 8.013 9.033 8.616 14.843.244 2.345.281 5.302-.21 7.735z"/><path id="path3_fill" d="M9.667 37.216c-.176-5.55.247-12.08 0-17.353-.347-7.397.72-16.243-.63-19.233-1.947-.874-3.043-.805-4.414 0-1.128.663-.996.846-1.26 1.463-.203.472-1.656 2.084-1.682 2.09-.133.036.167-.562-.21-.208.047-.045-.496.952-.63 1.045.19.87-.792 1.637 0 2.927-.661-.24-.51.327-.841.418.292 2.218-.655 4.887 1.472 6.9-.371.393-.65-.287-.84.417.673 1.711 1.887 3.728 3.362 5.227.163 7.792-.11 14.37.209 22.16.644.405.952 1.144 1.472 1.673 5.522.954 4.106-3.965 3.992-7.526zm-2.942 6.063c-2.135-1.954.518-6.438-.84-8.781.27-.358.433-.822 1.049-.836-.252-.446-.257-1.139-.84-1.254.04-.237.21-.117.21 0 .495-.38.334-1.172-.21-1.881.485.415.233-.053.63-.21-.522-1.905.613-4.477-.84-6.271.154-.372.382-.03.63 0-.207-2.193.36-3.302-.42-4.809-.355-.688-1.221-.816-1.68-1.463-.941-1.325-.674-3.14-1.892-4.39.232-3.481-.401-10.956 5.464-11.29.66 11.975.447 25.186.63 40.14-.458.52-.776 1.18-1.891 1.045z"/><path id="path4_fill" d="M12.036 2.35c-.054-.294-.46-.238-.63-.418-.822 1.487-1.82 1.231-3.153 2.717 1.803-1.966-.4-.824-.42.21h-1.05c-.348 2.371-1.606.874-2.102 3.763-.738-.389-.692.158-1.261.418C2.139 11.823.122 14.95.688 18.03c-.277-.003-.193-.366-.42-.419-1.611 10.47 4.31 18.628 10.717 22.58 2.373.94 4.539 2.081 7.146 2.508 7.402 1.212 13.69-1.416 18.282-5.227 3.39-4.008 6.357-8.302 6.935-14.426C44.864 7.006 26.172-5.352 12.036 2.35zm6.515 36.795c-1.6-.423-2.798-1.51-4.834-1.882v-.627c-.935.163-1.474-.58-1.943-1.209-.405.414-.585-.584-1.209-.046.17-.723-.392-.883 0-1.254-.444-.852-1.032-.263-1.681-.836.04-.237.21-.117.21 0 .281-.578-1.031-1.332-1.681-1.464.052-.228.418-.141.42-.418-1.58-1.921-1.956-4.935-3.783-7.108.19-.704.47-.024.841-.418-1.143-2.53.28-7.201.63-9.408 1.774-3.113 3.938-5.839 6.515-8.153 2.51-.589 4.771-2.425 7.566-2.718 6.351-.665 12.612 2.173 16.811 6.272 3.879 5.677 4.868 12.174 2.522 18.398-2.775 7.36-12.181 13.037-20.384 10.87zM41.877 17.61c1.704 9.484-4.09 18.394-10.716 21.534.846-.763 2.673-2.357 4.203-3.137.78-1.523 1.88-2.728 3.152-3.762 1.491-3.455 2.692-5.84 2.942-8.99.676-8.554-3.36-13.62-8.407-17.77-1.383-1.138-.351-.567 1.26 0 .78 1.385 2.294 2.039 3.363 3.136 1.6 2.923 3.566 5.443 4.203 8.99z"/><path id="path5_fill" d="M.3.372C.198.238.098.108 0 0c.074.149.152.295.3.372z"/><path id="path6_fill" d="M0 0l.07.091C.086.073.101.07.12.045.075.037.038.018 0 0z"/></defs></svg>