<svg width="40" height="40" xmlns="http://www.w3.org/2000/svg" xmlns:xlink="http://www.w3.org/1999/xlink"><g transform="translate(1036 -233)"><clipPath id="a" clip-rule="evenodd"><path d="M-1036 233h40v40h-40v-40z" fill="#FFF"/></clipPath><g clip-path="url(#a)"><use xlink:href="#path0_stroke" transform="translate(-1028 244.924)" fill="#4F4F4F"/><use xlink:href="#path1_stroke" transform="translate(-1025.53 247.471)" fill="#4F4F4F"/><use xlink:href="#path2_stroke" transform="translate(-1025.53 250.247)" fill="#4F4F4F"/><use xlink:href="#path3_stroke" transform="translate(-1025.53 253.023)" fill="#4F4F4F"/><use xlink:href="#path4_stroke" transform="translate(-1025.53 255.799)" fill="#4F4F4F"/><use xlink:href="#path5_stroke" transform="translate(-1025.53 258.574)" fill="#4F4F4F"/><g transform="translate(-1008.18 244)"><use xlink:href="#path6_fill" fill="#4F4F4F"/><use xlink:href="#path7_stroke" fill="#231F20"/></g><g transform="matrix(-.70796 -.70624 .70796 -.70624 -1016.04 257.392)"><use xlink:href="#path8_fill" fill="#4F4F4F"/><use xlink:href="#path9_stroke" fill="#231F20"/></g><g transform="translate(-1019.55 255.017)"><use xlink:href="#path10_fill" fill="#4F4F4F"/><use xlink:href="#path11_stroke" fill="#231F20"/></g><g><mask id="b"><use xlink:href="#path12_fill" fill="#fff" transform="translate(-1036 233)"/></mask><g mask="url(#b)"><use xlink:href="#path13_stroke_2x" transform="translate(-1036 233)" fill="#4F4F4F"/></g></g></g></g><defs><path id="path0_stroke" d="M15.165.5a.5.5 0 0 0 0-1v1zM0 0v-.5a.5.5 0 0 0-.5.5H0zm0 16.076h-.5a.5.5 0 0 0 .5.5v-.5zm17.618 0v.5a.5.5 0 0 0 .5-.5h-.5zm.5-5.576a.5.5 0 1 0-1 0h1zm-2.953-11H0v1h15.165v-1zM-.5 0v16.076h1V0h-1zM0 16.576h17.618v-1H0v1zm18.118-.5V10.5h-1v5.576h1z"/><path id="path1_stroke" d="M0-.5a.5.5 0 0 0 0 1v-1zm7.08 1a.5.5 0 1 0 0-1v1zM0 .5h7.08v-1H0v1z"/><path id="path2_stroke" d="M0-.5a.5.5 0 0 0 0 1v-1zm3.398 1a.5.5 0 0 0 0-1v1zM0 .5h3.398v-1H0v1z"/><path id="path3_stroke" d="M0-.5a.5.5 0 0 0 0 1v-1zm6.135 1a.5.5 0 0 0 0-1v1zM0 .5h6.135v-1H0v1z"/><path id="path4_stroke" d="M0-.5a.5.5 0 1 0 0 1v-1zm2.515 1a.5.5 0 0 0 0-1v1zM0 .5h2.515v-1H0v1z"/><path id="path5_stroke" d="M0-.5a.5.5 0 0 0 0 1v-1zm3.84 1a.5.5 0 1 0 0-1v1zM0 .5h3.84v-1H0v1z"/><path id="path6_fill" d="M2.728.455c.656.655.655 1.72-.348 2.72L0 .801C1.003-.199 2.07-.2 2.728.455z"/><path id="path7_stroke" d="M2.728.455L3.08.1l-.353.354zm-.348 2.72l-.353.354a.5.5 0 0 0 .706 0l-.353-.354zM0 .801L-.353.447a.5.5 0 0 0 0 .708L0 .801zm2.374.007c.227.226.334.511.304.832-.03.328-.21.741-.651 1.181l.706.708c.562-.56.884-1.18.941-1.797A2.008 2.008 0 0 0 3.081.1l-.707.707zm.359 2.013L.353.447l-.706.708 2.38 2.374.706-.708zM.353 1.155c.441-.44.855-.62 1.186-.65.323-.03.61.078.836.304L3.08.1a2.016 2.016 0 0 0-1.633-.592C.83-.434.209-.114-.353.447l.706.708z"/><path id="path8_fill" d="M3.361 0H0v14.466h3.361V0z"/><path id="path9_stroke" d="M0 0v-.5a.5.5 0 0 0-.5.5H0zm3.361 0h.5a.5.5 0 0 0-.5-.5V0zm0 14.466v.5a.5.5 0 0 0 .5-.5h-.5zm-3.361 0h-.5a.5.5 0 0 0 .5.5v-.5zM0 .5h3.361v-1H0v1zM2.861 0v14.466h1V0h-1zm.5 13.966H0v1h3.361v-1zm-2.861.5V0h-1v14.466h1z"/><path id="path10_fill" d="M1.124 0L0 3.568l3.505-1.193"/><path id="path11_stroke" d="M1.601.15a.5.5 0 0 0-.954-.3l.954.3zM0 3.568l-.477-.15a.5.5 0 0 0 .638.623L0 3.568zm3.666-.72a.5.5 0 1 0-.322-.946l.322.946zM.647-.15L-.477 3.418l.954.3L1.6.15l-.954-.3zM.161 4.04l3.505-1.193-.322-.946L-.16 3.095l.322.946z"/><path id="path12_fill" d="M40 20c0 11.046-8.954 20-20 20S0 31.046 0 20 8.954 0 20 0s20 8.954 20 20z"/><path id="path13_stroke_2x" d="M38 20c0 9.941-8.059 18-18 18v4c12.15 0 22-9.85 22-22h-4zM20 38c-9.941 0-18-8.059-18-18h-4c0 12.15 9.85 22 22 22v-4zM2 20c0-9.941 8.059-18 18-18v-4C7.85-2-2 7.85-2 20h4zM20 2c9.941 0 18 8.059 18 18h4C42 7.85 32.15-2 20-2v4z"/></defs></svg>