<svg width="40" height="40" xmlns="http://www.w3.org/2000/svg" xmlns:xlink="http://www.w3.org/1999/xlink"><g transform="translate(918 290)"><path fill="#E5E5E5" d="M-918-290h40v40h-40z"/><clipPath id="a" clip-rule="evenodd"><path d="M-1705-354h1083v834h-1083v-834z" fill="#FFF"/></clipPath><g clip-path="url(#a)"><path d="M-1705-354h1083v834h-1083v-834z" fill="#FFF"/><clipPath id="b" clip-rule="evenodd"><path d="M-918-290h40v40h-40v-40z" fill="#FFF"/></clipPath><g clip-path="url(#b)"><use xlink:href="#path0_fill" transform="translate(-918 -290)" fill="#EB6060" fill-opacity=".6"/><mask id="c"><use xlink:href="#path0_fill" fill="#fff" transform="translate(-918 -290)"/></mask><g mask="url(#c)"><use xlink:href="#path1_stroke_2x" transform="translate(-918 -290)" fill="#4F4F4F"/></g><g><use xlink:href="#path2_fill" transform="translate(-907 -298)" fill="#4F4F4F"/></g></g></g></g><defs><path id="path0_fill" d="M40 20c0 11.046-8.954 20-20 20S0 31.046 0 20 8.954 0 20 0s20 8.954 20 20z"/><path id="path1_stroke_2x" d="M39 20c0 10.493-8.507 19-19 19v2c11.598 0 21-9.402 21-21h-2zM20 39C9.507 39 1 30.493 1 20h-2c0 11.598 9.402 21 21 21v-2zM1 20C1 9.507 9.507 1 20 1v-2C8.402-1-1 8.402-1 20h2zM20 1c10.493 0 19 8.507 19 19h2C41 8.402 31.598-1 20-1v2z"/><path id="path2_fill" d="M4.56 31.28c-.773 0-1.36-.173-1.76-.52-.373-.347-.56-.827-.56-1.44s.187-1.093.56-1.44c.4-.373.987-.56 1.76-.56h8.24c.773 0 1.347.187 1.72.56.4.347.6.827.6 1.44s-.2 1.093-.6 1.44c-.373.347-.947.52-1.72.52H4.56z"/></defs></svg>