<svg width="25" height="25" xmlns="http://www.w3.org/2000/svg" xmlns:xlink="http://www.w3.org/1999/xlink"><g transform="translate(842 271)"><path fill="#E5E5E5" d="M-842-271h25v25h-25z"/><clipPath id="a" clip-rule="evenodd"><path d="M-1705-354h1083v834h-1083v-834z" fill="#FFF"/></clipPath><g clip-path="url(#a)"><path d="M-1705-354h1083v834h-1083v-834z" fill="#FFF"/><clipPath id="b" clip-rule="evenodd"><path d="M-842-271h25v25h-25v-25z" fill="#FFF"/></clipPath><g clip-path="url(#b)"><use xlink:href="#path0_fill" transform="translate(-842 -271)" fill="#EB6060" fill-opacity=".6"/><mask id="c"><use xlink:href="#path0_fill" fill="#fff" transform="translate(-842 -271)"/></mask><g mask="url(#c)"><use xlink:href="#path1_stroke_2x" transform="translate(-842 -271)" fill="#4F4F4F"/></g><g><use xlink:href="#path2_fill" transform="translate(-836 -280)" fill="#4F4F4F"/></g></g></g></g><defs><path id="path0_fill" d="M25 12.5C25 19.404 19.404 25 12.5 25S0 19.404 0 12.5 5.596 0 12.5 0 25 5.596 25 12.5z"/><path id="path1_stroke_2x" d="M24 12.5C24 18.851 18.851 24 12.5 24v2C19.956 26 26 19.956 26 12.5h-2zM12.5 24C6.149 24 1 18.851 1 12.5h-2C-1 19.956 5.044 26 12.5 26v-2zM1 12.5C1 6.149 6.149 1 12.5 1v-2C5.044-1-1 5.044-1 12.5h2zM12.5 1C18.851 1 24 6.149 24 12.5h2C26 5.044 19.956-1 12.5-1v2z"/><path id="path2_fill" d="M3.42 23.46c-.58 0-1.02-.13-1.32-.39-.28-.26-.42-.62-.42-1.08 0-.46.14-.82.42-1.08.3-.28.74-.42 1.32-.42H9.6c.58 0 1.01.14 1.29.42.3.26.45.62.45 1.08 0 .46-.15.82-.45 1.08-.28.26-.71.39-1.29.39H3.42z"/></defs></svg>