<svg width="40" height="40" xmlns="http://www.w3.org/2000/svg" xmlns:xlink="http://www.w3.org/1999/xlink"><use xlink:href="#path0_fill" fill="#4F4F4F"/><use xlink:href="#path1_fill" transform="translate(11.19 11.94)" fill="#4F4F4F"/><g><use xlink:href="#path2_fill" transform="translate(22.24 23.284)" fill="#4F4F4F"/><use xlink:href="#path3_fill" transform="translate(22.91 22.761)" fill="#4F4F4F"/></g><defs><path id="path0_fill" d="M20 40C8.955 40 0 31.045 0 20S8.955 0 20 0s20 8.955 20 20-8.955 20-20 20zm0-38.433c-10.15 0-18.507 8.284-18.507 18.508C1.493 30.299 9.85 38.508 20 38.508c10.15 0 18.508-8.284 18.508-18.508C38.508 9.776 30.224 1.567 20 1.567z"/><path id="path1_fill" d="M6.94 0C3.134 0 0 3.134 0 6.94c0 3.806 3.134 6.94 6.94 6.94 1.335 0 2.571-.394 3.628-1.023.383-.227.42-.75.104-1.065-.257-.258-.662-.281-.978-.1-.79.45-1.71.696-2.68.696-2.984 0-5.447-2.463-5.447-5.448 0-2.985 2.463-5.447 5.448-5.447 2.985 0 5.448 2.462 5.448 5.447a5.32 5.32 0 0 1-.783 2.786c-.21.34-.195.789.087 1.071l.498.498a.069.069 0 0 1 0 .097c-.061.06-.049.076.007.01A6.907 6.907 0 0 0 13.88 6.94C13.88 3.134 10.746 0 6.94 0z"/><path id="path2_fill" d="M1.826.567A.788.788 0 0 0 .706.562L.15 1.12H.149v-.001l4.31 4.237c.01.01.027.01.037 0L5 4.85a.745.745 0 0 0 .005-1.05L1.825.568z"/><path id="path3_fill" d="M.448.448L0 0l.448.448z"/></defs></svg>