<svg width="40" height="40" xmlns="http://www.w3.org/2000/svg" xmlns:xlink="http://www.w3.org/1999/xlink"><g transform="translate(1351 -233)"><clipPath id="a" clip-rule="evenodd"><path d="M-1351 233h40v40h-40v-40z" fill="#FFF"/></clipPath><g clip-path="url(#a)"><use xlink:href="#path0_fill" transform="translate(-1343 241)" fill="#4F4F4F"/><mask id="b"><use xlink:href="#path1_fill" fill="#fff" transform="translate(-1351 233)"/></mask><g mask="url(#b)"><use xlink:href="#path2_stroke_2x" transform="translate(-1351 233)" fill="#4F4F4F"/></g></g></g><defs><path id="path0_fill" d="M24 23.145l-7.088-7.087a9.62 9.62 0 0 0 2.43-6.387C19.342 4.338 15.003 0 9.67 0 4.338 0 0 4.338 0 9.67c0 5.333 4.338 9.672 9.67 9.672a9.618 9.618 0 0 0 6.388-2.43L23.145 24l.855-.855zM9.67 18.133c-4.665 0-8.461-3.796-8.461-8.462S5.005 1.209 9.67 1.209c4.665 0 8.462 3.796 8.462 8.462s-3.797 8.462-8.462 8.462z"/><path id="path1_fill" d="M40 20c0 11.046-8.954 20-20 20S0 31.046 0 20 8.954 0 20 0s20 8.954 20 20z"/><path id="path2_stroke_2x" d="M38 20c0 9.941-8.059 18-18 18v4c12.15 0 22-9.85 22-22h-4zM20 38c-9.941 0-18-8.059-18-18h-4c0 12.15 9.85 22 22 22v-4zM2 20c0-9.941 8.059-18 18-18v-4C7.85-2-2 7.85-2 20h4zM20 2c9.941 0 18 8.059 18 18h4C42 7.85 32.15-2 20-2v4z"/></defs></svg>