<svg width="40" height="40" xmlns="http://www.w3.org/2000/svg" xmlns:xlink="http://www.w3.org/1999/xlink"><g transform="translate(962 -294)"><path fill="#E5E5E5" d="M-962 294h40v40h-40z"/><clipPath id="a" clip-rule="evenodd"><path d="M-1459 14h715v381h-715V14z" fill="#FFF"/></clipPath><g clip-path="url(#a)"><path d="M-1459 14h715v381h-715V14z" fill="#FFF"/><clipPath id="b" clip-rule="evenodd"><path d="M-962 294h40v40h-40v-40z" fill="#FFF"/></clipPath><g clip-path="url(#b)"><mask id="c"><use xlink:href="#path0_fill" fill="#fff" transform="translate(-962 294)"/></mask><g mask="url(#c)"><use xlink:href="#path1_stroke_2x" transform="translate(-962 294)" fill="#4F4F4F"/></g><g><use xlink:href="#path2_fill" transform="translate(-949 300)" fill="#4F4F4F"/></g></g></g></g><defs><path id="path0_fill" d="M40 20c0 11.046-8.954 20-20 20S0 31.046 0 20 8.954 0 20 0s20 8.954 20 20z"/><path id="path1_stroke_2x" d="M38 20c0 9.941-8.059 18-18 18v4c12.15 0 22-9.85 22-22h-4zM20 38c-9.941 0-18-8.059-18-18h-4c0 12.15 9.85 22 22 22v-4zM2 20c0-9.941 8.059-18 18-18v-4C7.85-2-2 7.85-2 20h4zM20 2c9.941 0 18 8.059 18 18h4C42 7.85 32.15-2 20-2v4z"/><path id="path2_fill" d="M13.972 1.304a.57.57 0 0 0-.357-.445C12.468.428 10.954 0 9.33 0 8.057 0 6.707.268 5.452 1.022a4.921 4.921 0 0 0-1.509 1.396c-.57.81-.874 1.741-1.045 2.687-.138.765-.19 1.544-.218 2.3a71.792 71.792 0 0 1-1.798.006L.65 7.408a11.718 11.718 0 0 0-.085-.001.554.554 0 0 0-.4.165.584.584 0 0 0-.164.41l.022 3.804c.002.317.25.596.558.596h.387c.544 0 1.558-.024 2.338-.008.115 2.613.142 6.529.142 9.567 0 1.281-.005 2.398-.01 3.202l-.006.94-.003.34a.58.58 0 0 0 .162.41.55.55 0 0 0 .396.167l4.94-.026a.543.543 0 0 0 .392-.17.577.577 0 0 0 .16-.408l-.056-6.508c-.026-2.904-.055-5.986-.071-7.422.305-.005.66-.007 1.005-.007a125.473 125.473 0 0 1 1.569.01.547.547 0 0 0 .397-.164.582.582 0 0 0 .166-.407l.006-3.523c0-.154-.058-.35-.163-.458-.105-.107-.246-.218-.395-.218h-.184c-.119 0-.287.052-.488.052-.62 0-1.557.023-2.299.01.014-.39.048-.723.104-1.018.053-.287.128-.519.215-.71.066-.144.139-.257.217-.352.119-.141.247-.237.413-.309a1.62 1.62 0 0 1 .64-.113c.472-.001 1.122.143 1.935.467l.019.006c.006.002.012.006.018.007.012.004.024.005.036.008a.53.53 0 0 0 .056.011l.053.004h.055a.491.491 0 0 0 .106-.019.48.48 0 0 0 .1-.038.577.577 0 0 0 .168-.133c.012-.013.023-.028.034-.043a.566.566 0 0 0 .056-.098c.005-.011.012-.022.016-.034l.006-.02.008-.019c.112-.38.304-1.02.47-1.693.082-.338.159-.686.215-1.02.057-.335.095-.655.095-.953 0-.132-.008-.26-.028-.388zM9.312 4.4a2.205 2.205 0 0 0-.706.602c-.289.375-.475.834-.592 1.357-.116.523-.166 1.117-.166 1.786l.001.209c.005.305.242.47.538.48.79.025 2.085-.054 2.876-.054h.12l-.005 2.454c-.284-.002-.647.037-1.022.037-.592 0-1.204.027-1.595.047-.3.015-.532.282-.528.59.015.98.048 4.61.078 7.985l.04 4.523.012 1.414-3.82.02c.007-.758.015-2.198.015-3.923 0-3.261-.03-7.53-.17-10.17a.562.562 0 0 0-.534-.54 92.91 92.91 0 0 0-2.724-.033l-.015-2.626.53.002c.543 0 1.165-.006 1.605-.032a.565.565 0 0 0 .524-.557c.03-1.205.096-2.428.407-3.468.154-.521.367-.995.661-1.412a3.797 3.797 0 0 1 1.17-1.08c1.053-.632 2.193-.865 3.32-.866 1.283 0 2.538.31 3.553.664-.008.179-.034.4-.074.64-.075.441-.196.945-.32 1.406-.056.211-.113.412-.166.597-.656-.218-1.24-.336-1.771-.337-.453 0-.874.088-1.241.285z"/></defs></svg>