<svg width="40" height="40" xmlns="http://www.w3.org/2000/svg" xmlns:xlink="http://www.w3.org/1999/xlink"><g transform="translate(1429 -349)"><path fill="#E5E5E5" d="M-1429 349h40v40h-40z"/><clipPath id="a" clip-rule="evenodd"><path d="M-1459 14h715v381h-715V14z" fill="#FFF"/></clipPath><g clip-path="url(#a)"><path d="M-1459 14h715v381h-715V14z" fill="#FFF"/><clipPath id="b" clip-rule="evenodd"><path d="M-1429 349h40v40h-40v-40z" fill="#FFF"/></clipPath><g clip-path="url(#b)"><use xlink:href="#path0_fill" transform="translate(-1423 358)" fill="#4F4F4F"/></g></g></g><defs><path id="path0_fill" d="M23.884.676c-3.568-1.688-8.233-.1-9.882 3.539C12.349.575 7.686-1.014 4.118.675.318 2.478-1.499 7.08 1.502 12.509 3.633 16.37 7.41 19.28 14.002 24.5c6.588-5.22 10.366-8.131 12.496-11.992 3-5.429 1.184-10.03-2.614-11.832z"/></defs></svg>