<svg width="40" height="40" xmlns="http://www.w3.org/2000/svg" xmlns:xlink="http://www.w3.org/1999/xlink"><g transform="translate(800 -233)"><path fill="#E5E5E5" d="M-800 233h40v40h-40z"/><clipPath id="a" clip-rule="evenodd"><path d="M-1459 14h715v381h-715V14z" fill="#FFF"/></clipPath><g clip-path="url(#a)"><path d="M-1459 14h715v381h-715V14z" fill="#FFF"/><clipPath id="b" clip-rule="evenodd"><path d="M-800 233h40v40h-40v-40z" fill="#FFF"/></clipPath><g clip-path="url(#b)"><use xlink:href="#path0_fill" transform="translate(-788.588 247.949)" fill="#4F4F4F"/><use xlink:href="#path1_fill" transform="translate(-778.469 257.495)" fill="#4F4F4F"/><use xlink:href="#path2_fill" transform="translate(-792 241)" fill="#4F4F4F"/><g><mask id="c"><use xlink:href="#path3_fill" fill="#fff" transform="translate(-800 233)"/></mask><g mask="url(#c)"><use xlink:href="#path4_stroke_2x" transform="translate(-800 233)" fill="#4F4F4F"/></g></g></g></g></g><defs><path id="path0_fill" d="M9.078 9.376l.072-.478a.923.923 0 0 0-.209-.741.827.827 0 0 0-.198-.163v-.66a.796.796 0 0 1 .118-.008.3.3 0 0 0 .3-.297c0-.02 0-.376-.222-.746a.973.973 0 0 0 .467-.842v-.208c0-.45-.289-.825-.677-.931v-.653a.795.795 0 0 0 .377-.675v-.406A2.572 2.572 0 0 0 6.536 0H2.813a2.572 2.572 0 0 0-2.57 2.568v.406c0 .308.178.572.433.705v.624c-.387.106-.675.481-.675.93v.208c0 .353.18.66.444.828a1.273 1.273 0 0 0-.195.796.3.3 0 0 0 .297.261c.057 0 .102.006.143.014v.638a.82.82 0 0 0-.223.179c-.174.2-.25.47-.21.74l.072.479c.096.642.6 1.108 1.2 1.108h6.35c.6 0 1.104-.466 1.2-1.108zm-7.932-2.97h7.129c.123.12.195.253.234.366a1.343 1.343 0 0 0-.318.144.619.619 0 0 1-.37.11.62.62 0 0 1-.37-.11 1.194 1.194 0 0 0-.67-.19c-.34 0-.523.106-.67.19a.618.618 0 0 1-.369.11.617.617 0 0 1-.37-.11c-.147-.084-.33-.19-.67-.19-.339 0-.522.106-.668.19a.618.618 0 0 1-.37.11.617.617 0 0 1-.37-.11c-.146-.084-.329-.19-.668-.19-.34 0-.523.106-.67.19a.618.618 0 0 1-.37.11.617.617 0 0 1-.369-.11 1.308 1.308 0 0 0-.346-.152.619.619 0 0 1 .275-.359zm.13-2.142v-.492h6.853v.492H5.171c-.472 0-.932.212-1.262.58l-.326.364-.327-.364c-.33-.368-.79-.58-1.262-.58h-.718zm.014 3.617v-.29c.084.02.178.034.295.034.34 0 .523-.105.67-.19a.618.618 0 0 1 .369-.109c.18 0 .255.043.37.11.146.084.329.19.668.19.34 0 .523-.106.67-.19a.618.618 0 0 1 .37-.11c.179 0 .255.043.369.11.147.084.33.19.67.19.339 0 .522-.106.669-.19a.618.618 0 0 1 .369-.11c.18 0 .256.044.37.11.147.084.33.19.67.19.13 0 .231-.019.322-.043v.298h-.68c-.495 0-.98.222-1.327.61l-.3.333-.299-.334a1.795 1.795 0 0 0-1.328-.61H1.29v.001zm7.516-2.44c0 .2-.132.364-.295.364H3.853l.503-.561c.22-.245.509-.38.815-.38H8.43c.01 0 .019-.005.028-.006.018.004.035.011.053.011.163 0 .296.163.296.364v.208zM.843 2.568A1.97 1.97 0 0 1 2.812.6h3.725c1.085 0 1.969.883 1.969 1.968v.406a.197.197 0 0 1-.197.198H1.04a.197.197 0 0 1-.197-.198v-.406zM.6 5.233c0-.2.132-.364.295-.364h.097c.01 0 .017-.004.025-.005h.976c.305 0 .595.135.815.38l.503.561H.896c-.163 0-.295-.164-.295-.364v-.208zm.321 4.054L.851 8.81a.328.328 0 0 1 .07-.26.213.213 0 0 1 .121-.068H4.21c.331 0 .644.146.881.41l.523.583a.3.3 0 0 0 .447 0l.522-.583c.238-.264.55-.41.882-.41h.9c.055.01.098.038.122.067a.328.328 0 0 1 .07.26l-.072.48c-.051.345-.306.596-.606.596h-6.35c-.3 0-.554-.251-.606-.597z"/><path id="path1_fill" d="M2.984.01A4.15 4.15 0 0 0 .005 3.256a.3.3 0 1 0 .59.107A3.548 3.548 0 0 1 3.141.59a.3.3 0 1 0-.157-.578z"/><path id="path2_fill" d="M23.7 21.088h-.01v-.163c0-2.886-2.134-5.277-4.907-5.695.204-.214.332-.502.332-.82a1.194 1.194 0 0 0-2.386 0c0 .318.127.607.331.82a5.748 5.748 0 0 0-.854.19V1.837a.3.3 0 0 0-.3-.3h-2.135V.3a.3.3 0 0 0-.335-.298L.265 1.54c-.015.002-.027.01-.04.014-.02.005-.04.01-.057.018-.018.009-.032.02-.047.032-.015.011-.03.022-.043.037a.29.29 0 0 0-.032.047c-.01.016-.02.032-.026.05-.006.02-.009.04-.012.06-.002.013-.008.026-.008.04V23.7a.3.3 0 0 0 .3.3h23.4a.3.3 0 0 0 .3-.3v-2.312a.3.3 0 0 0-.3-.3zm-.61-.163v.163H12.753v-.163a5.173 5.173 0 0 1 5.169-5.166 5.173 5.173 0 0 1 5.168 5.166zm-5.168-7.107a.593.593 0 1 1-.002 1.186.593.593 0 0 1 .002-1.186zm-4.75-12.28H5.456l7.714-.9v.9zM.6 2.138h15.006v13.51a5.772 5.772 0 0 0-3.453 5.277v.166a.299.299 0 0 0-.288.297V23.4H.6V2.138zM23.4 23.4H12.465v-1.712H23.4V23.4z"/><path id="path3_fill" d="M40 20c0 11.046-8.954 20-20 20S0 31.046 0 20 8.954 0 20 0s20 8.954 20 20z"/><path id="path4_stroke_2x" d="M38 20c0 9.941-8.059 18-18 18v4c12.15 0 22-9.85 22-22h-4zM20 38c-9.941 0-18-8.059-18-18h-4c0 12.15 9.85 22 22 22v-4zM2 20c0-9.941 8.059-18 18-18v-4C7.85-2-2 7.85-2 20h4zM20 2c9.941 0 18 8.059 18 18h4C42 7.85 32.15-2 20-2v4z"/></defs></svg>