<svg width="40" height="40" xmlns="http://www.w3.org/2000/svg" xmlns:xlink="http://www.w3.org/1999/xlink"><g transform="translate(957 -233)"><path fill="#E5E5E5" d="M-957 233h40v40h-40z"/><clipPath id="a" clip-rule="evenodd"><path d="M-1459 14h715v381h-715V14z" fill="#FFF"/></clipPath><g clip-path="url(#a)"><path d="M-1459 14h715v381h-715V14z" fill="#FFF"/><clipPath id="b" clip-rule="evenodd"><path d="M-957 233h40v40h-40v-40z" fill="#FFF"/></clipPath><g clip-path="url(#b)"><use xlink:href="#path0_fill" transform="translate(-954 241)" fill="#4F4F4F"/><use xlink:href="#path1_fill" transform="translate(-954 251.261)" fill="#4F4F4F"/><use xlink:href="#path2_fill" transform="translate(-954 261.522)" fill="#4F4F4F"/></g></g></g><defs><path id="path0_fill" d="M31.304 3.478H1.74C.783 3.478 0 2.696 0 1.74 0 .783.783 0 1.74 0h29.564c.957 0 1.74.783 1.74 1.74 0 .956-.783 1.738-1.74 1.738z"/><path id="path1_fill" d="M31.304 3.478H1.74C.783 3.478 0 2.696 0 1.74 0 .783.783 0 1.74 0h29.564c.957 0 1.74.783 1.74 1.74 0 .956-.783 1.738-1.74 1.738z"/><path id="path2_fill" d="M31.304 3.478H1.74C.783 3.478 0 2.696 0 1.74 0 .783.783 0 1.74 0h29.564c.957 0 1.74.783 1.74 1.74 0 .956-.783 1.738-1.74 1.738z"/></defs></svg>