<svg width="40" height="40" xmlns="http://www.w3.org/2000/svg" xmlns:xlink="http://www.w3.org/1999/xlink"><g transform="translate(1272 -294)"><path fill="#E5E5E5" d="M-1272 294h40v40h-40z"/><clipPath id="a" clip-rule="evenodd"><path d="M-1459 14h715v381h-715V14z" fill="#FFF"/></clipPath><g clip-path="url(#a)"><path d="M-1459 14h715v381h-715V14z" fill="#FFF"/><clipPath id="b" clip-rule="evenodd"><path d="M-1272 294h40v40h-40v-40z" fill="#FFF"/></clipPath><g clip-path="url(#b)"><mask id="c"><use xlink:href="#path0_fill" fill="#fff" transform="translate(-1272 294)"/></mask><g mask="url(#c)"><use xlink:href="#path1_stroke_2x" transform="translate(-1272 294)" fill="#4F4F4F"/></g><g><use xlink:href="#path2_fill" transform="translate(-1264 302)" fill="#4F4F4F"/></g></g></g></g><defs><path id="path0_fill" d="M40 20c0 11.046-8.954 20-20 20S0 31.046 0 20 8.954 0 20 0s20 8.954 20 20z"/><path id="path1_stroke_2x" d="M38 20c0 9.941-8.059 18-18 18v4c12.15 0 22-9.85 22-22h-4zM20 38c-9.941 0-18-8.059-18-18h-4c0 12.15 9.85 22 22 22v-4zM2 20c0-9.941 8.059-18 18-18v-4C7.85-2-2 7.85-2 20h4zM20 2c9.941 0 18 8.059 18 18h4C42 7.85 32.15-2 20-2v4z"/><path id="path2_fill" d="M11.988 0C5.367 0 0 5.367 0 11.987c0 5.079 3.158 9.417 7.618 11.162-.105-.949-.199-2.403.041-3.439.219-.937 1.406-5.957 1.406-5.957s-.359-.72-.359-1.781c0-1.663.967-2.911 2.168-2.911 1.024 0 1.518.769 1.518 1.688 0 1.029-.653 2.567-.992 3.992-.285 1.193.6 2.165 1.775 2.165 2.128 0 3.768-2.245 3.768-5.487 0-2.861-2.063-4.869-5.008-4.869-3.41 0-5.409 2.562-5.409 5.199 0 1.033.394 2.143.889 2.741.099.12.112.225.085.345-.09.375-.293 1.199-.334 1.363-.053.225-.172.271-.401.165-1.495-.69-2.433-2.878-2.433-4.646 0-3.776 2.748-7.252 7.92-7.252 4.158 0 7.392 2.967 7.392 6.923 0 4.135-2.607 7.462-6.233 7.462-1.214 0-2.354-.629-2.758-1.379l-.749 2.848c-.269 1.045-1.004 2.352-1.498 3.146 1.123.345 2.306.535 3.55.535 6.607 0 11.985-5.365 11.985-11.987C23.941 5.39 18.563.026 11.956.026L11.988 0z"/></defs></svg>