<svg width="40" height="40" xmlns="http://www.w3.org/2000/svg" xmlns:xlink="http://www.w3.org/1999/xlink"><g transform="translate(1350 -294)"><path fill="#E5E5E5" d="M-1350 294h40v40h-40z"/><clipPath id="a" clip-rule="evenodd"><path d="M-1459 14h715v381h-715V14z" fill="#FFF"/></clipPath><g clip-path="url(#a)"><path d="M-1459 14h715v381h-715V14z" fill="#FFF"/><clipPath id="b" clip-rule="evenodd"><path d="M-1350 294h40v40h-40v-40z" fill="#FFF"/></clipPath><g clip-path="url(#b)"><mask id="c"><use xlink:href="#path0_fill" fill="#fff" transform="translate(-1350 294)"/></mask><g mask="url(#c)"><use xlink:href="#path1_stroke_2x" transform="translate(-1350 294)" fill="#4F4F4F"/></g><g><use xlink:href="#path2_fill" transform="translate(-1342 304)" fill="#4F4F4F"/></g></g></g></g><defs><path id="path0_fill" d="M40 20c0 11.046-8.954 20-20 20S0 31.046 0 20 8.954 0 20 0s20 8.954 20 20z"/><path id="path1_stroke_2x" d="M38 20c0 9.941-8.059 18-18 18v4c12.15 0 22-9.85 22-22h-4zM20 38c-9.941 0-18-8.059-18-18h-4c0 12.15 9.85 22 22 22v-4zM2 20c0-9.941 8.059-18 18-18v-4C7.85-2-2 7.85-2 20h4zM20 2c9.941 0 18 8.059 18 18h4C42 7.85 32.15-2 20-2v4z"/><path id="path2_fill" d="M23.954 2.323a10 10 0 0 1-2.825.775A4.958 4.958 0 0 0 23.292.375c-.951.555-2.005.959-3.127 1.184a4.92 4.92 0 0 0-8.384 4.482C7.691 5.848 4.066 3.884 1.64.915A4.822 4.822 0 0 0 .974 3.39c0 1.71.87 3.213 2.188 4.096A4.904 4.904 0 0 1 .934 6.87v.061a4.923 4.923 0 0 0 3.946 4.827 4.996 4.996 0 0 1-2.212.085 4.937 4.937 0 0 0 4.604 3.417 9.868 9.868 0 0 1-6.102 2.105c-.39 0-.779-.023-1.17-.067a13.995 13.995 0 0 0 7.557 2.209c9.054 0 13.999-7.496 13.999-13.986 0-.209 0-.42-.015-.63a9.936 9.936 0 0 0 2.46-2.548l-.047-.02z"/></defs></svg>