<svg width="40" height="40" xmlns="http://www.w3.org/2000/svg" xmlns:xlink="http://www.w3.org/1999/xlink"><g transform="translate(1194 -233)"><clipPath id="a" clip-rule="evenodd"><path d="M-1194 233h40v40h-40v-40z" fill="#FFF"/></clipPath><g clip-path="url(#a)"><use xlink:href="#path0_fill" transform="translate(-1177 240)" fill="#4F4F4F"/><mask id="b"><use xlink:href="#path1_fill" fill="#fff" transform="translate(-1194 233)"/></mask><g mask="url(#b)"><use xlink:href="#path2_stroke_2x" transform="translate(-1194 233)" fill="#4F4F4F"/></g></g></g><defs><path id="path0_fill" d="M6 2.532c0 .732-.3 1.351-.9 1.914-.6.506-1.26.788-2.1.788-.42 0-.78-.057-1.14-.225a5.245 5.245 0 0 1-.96-.563C.6 4.22.42 3.939.24 3.602A2.094 2.094 0 0 1 0 2.589c0-.338.06-.62.24-.957.18-.338.36-.563.66-.844.3-.225.6-.45.96-.563C2.22.056 2.58 0 3 0c.42 0 .78.056 1.14.225.36.169.66.338.96.563.3.225.48.506.66.788.18.281.24.619.24.956zm-.3 20.88c0 .787-.24 1.406-.72 1.856-.48.45-1.14.732-1.92.732s-1.44-.225-1.92-.732c-.48-.45-.72-1.125-.72-1.857V10.524c0-.788.24-1.407.72-1.914.48-.45 1.14-.731 1.92-.731s1.44.225 1.92.731c.48.45.72 1.126.72 1.914V23.41z"/><path id="path1_fill" d="M40 20c0 11.046-8.954 20-20 20S0 31.046 0 20 8.954 0 20 0s20 8.954 20 20z"/><path id="path2_stroke_2x" d="M38 20c0 9.941-8.059 18-18 18v4c12.15 0 22-9.85 22-22h-4zM20 38c-9.941 0-18-8.059-18-18h-4c0 12.15 9.85 22 22 22v-4zM2 20c0-9.941 8.059-18 18-18v-4C7.85-2-2 7.85-2 20h4zM20 2c9.941 0 18 8.059 18 18h4C42 7.85 32.15-2 20-2v4z"/></defs></svg>