<svg width="40" height="40" xmlns="http://www.w3.org/2000/svg" xmlns:xlink="http://www.w3.org/1999/xlink"><g transform="translate(1427 -294)"><clipPath id="a" clip-rule="evenodd"><path d="M-1427 294h40v40h-40v-40z" fill="#FFF"/></clipPath><g clip-path="url(#a)"><mask id="b"><use xlink:href="#path0_fill" fill="#fff" transform="translate(-1427 294)"/></mask><g mask="url(#b)"><use xlink:href="#path1_stroke_2x" transform="translate(-1427 294)" fill="#4F4F4F"/></g><g><use xlink:href="#path2_fill" transform="translate(-1419 306)" fill="#4F4F4F"/></g></g></g><defs><path id="path0_fill" d="M40 20c0 11.046-8.954 20-20 20S0 31.046 0 20 8.954 0 20 0s20 8.954 20 20z"/><path id="path1_stroke_2x" d="M38 20c0 9.941-8.059 18-18 18v4c12.15 0 22-9.85 22-22h-4zM20 38c-9.941 0-18-8.059-18-18h-4c0 12.15 9.85 22 22 22v-4zM2 20c0-9.941 8.059-18 18-18v-4C7.85-2-2 7.85-2 20h4zM20 2c9.941 0 18 8.059 18 18h4C42 7.85 32.15-2 20-2v4z"/><path id="path2_fill" d="M7.635 6.542v2.619h4.335c-.173 1.125-1.31 3.295-4.331 3.295-2.604 0-4.731-2.16-4.731-4.823 0-2.662 2.122-4.822 4.728-4.822 1.485 0 2.479.633 3.045 1.178l2.073-1.994C11.424.75 9.698 0 7.639 0A7.63 7.63 0 0 0 0 7.633a7.633 7.633 0 0 0 7.635 7.635c4.41 0 7.332-3.098 7.332-7.461a6.96 6.96 0 0 0-.12-1.265H7.635zm16.365 0h-2.183V4.359h-2.183v2.183h-2.182v2.181h2.184v2.184h2.189V8.723H24"/></defs></svg>